<?xml version="1.0" standalone="no"?>
<!DOCTYPE svg PUBLIC "-//W3C//DTD SVG 20010904//EN"
 "http://www.w3.org/TR/2001/REC-SVG-20010904/DTD/svg10.dtd">
<svg version="1.0" xmlns="http://www.w3.org/2000/svg"
 width="90.000000pt" height="90.000000pt" viewBox="0 0 90.000000 90.000000"
 preserveAspectRatio="xMidYMid meet">
<metadata>
Created by potrace 1.11, written by Peter Selinger 2001-2013
</metadata>
<g transform="translate(0.000000,90.000000) scale(0.100000,-0.100000)"
fill="#000000" stroke="none">
<path d="M218 734 c-5 -4 -8 -142 -8 -306 l0 -298 133 0 c210 0 281 29 334
138 26 52 28 67 28 172 0 101 -3 121 -24 163 -26 53 -82 100 -140 118 -44 13
-313 24 -323 13z m331 -103 c50 -36 75 -100 76 -196 0 -67 -4 -89 -26 -130
-37 -73 -87 -98 -206 -103 l-93 -4 0 232 0 232 108 -3 c94 -4 111 -7 141 -28z"/>
</g>
</svg>
