<?xml version="1.0" standalone="no"?>
<!DOCTYPE svg PUBLIC "-//W3C//DTD SVG 20010904//EN"
 "http://www.w3.org/TR/2001/REC-SVG-20010904/DTD/svg10.dtd">
<svg version="1.0" xmlns="http://www.w3.org/2000/svg"
 width="1024.000000pt" height="1024.000000pt" viewBox="0 0 1024.000000 1024.000000"
 preserveAspectRatio="xMidYMid meet">
<metadata>
Created by potrace 1.11, written by Peter Selinger 2001-2013
</metadata>
<g transform="translate(0.000000,1024.000000) scale(0.100000,-0.100000)"
fill="#000000" stroke="none">
<path d="M3498 9765 c-2 -1 -32 -5 -68 -8 -219 -20 -415 -119 -601 -306 -213
-214 -375 -513 -473 -874 -30 -109 -72 -317 -82 -402 -3 -33 -8 -68 -10 -78
-2 -10 -6 -53 -9 -95 -4 -42 -9 -95 -11 -117 -6 -77 -8 -201 -1 -211 6 -10
211 -14 220 -4 5 5 9 33 23 163 8 74 52 272 76 337 59 162 133 282 235 384
113 112 238 187 390 232 75 22 108 26 218 27 73 0 150 -5 175 -12 400 -108
673 -495 919 -1308 35 -115 113 -413 127 -483 3 -13 14 -61 24 -106 11 -45 22
-95 25 -111 5 -30 6 -32 29 -145 9 -42 16 -86 16 -97 0 -10 -27 -76 -60 -146
-33 -70 -60 -128 -60 -130 0 -2 -25 -56 -56 -121 -67 -143 -104 -222 -134
-289 -13 -27 -43 -93 -67 -145 -25 -52 -143 -306 -263 -565 -120 -258 -237
-510 -260 -560 -58 -122 -142 -307 -145 -315 -1 -3 -21 -45 -44 -95 -24 -49
-56 -117 -71 -150 -15 -33 -44 -96 -65 -140 -21 -44 -50 -107 -65 -140 -64
-140 -396 -855 -459 -988 -28 -60 -51 -110 -51 -112 0 -1 -26 -58 -59 -126
-58 -124 -89 -191 -141 -304 -15 -33 -42 -91 -60 -130 -76 -163 -101 -217
-165 -355 -37 -80 -79 -172 -95 -205 -42 -91 -96 -206 -162 -350 -133 -286
-219 -471 -259 -555 l-27 -55 22 -5 c17 -4 1150 -5 1192 -1 6 1 23 29 38 64
62 139 16 34 451 1022 152 347 285 648 295 670 34 75 63 140 117 265 30 69 63
144 74 167 10 24 28 62 38 85 11 24 127 288 259 588 132 300 252 571 266 602
14 31 26 59 26 62 0 2 15 37 34 78 18 40 56 125 83 188 28 63 60 135 71 160
12 25 57 128 102 230 45 102 83 186 84 187 4 4 43 -161 82 -347 3 -13 14 -60
24 -105 10 -45 21 -92 24 -105 9 -49 117 -536 131 -595 8 -33 19 -80 24 -105
7 -37 28 -134 46 -210 2 -8 10 -46 19 -85 8 -38 26 -119 39 -180 14 -60 39
-173 55 -250 17 -77 47 -208 66 -290 19 -83 36 -164 39 -180 3 -17 14 -68 25
-115 12 -47 33 -134 47 -195 14 -60 35 -141 46 -180 11 -38 24 -86 29 -105 32
-122 141 -445 188 -555 141 -338 263 -505 464 -638 133 -89 310 -170 419 -193
166 -34 333 -36 472 -4 86 19 218 72 245 98 7 6 18 12 23 12 21 0 128 86 209
169 146 148 251 324 326 550 37 112 88 335 99 436 4 33 9 62 10 65 2 3 7 44
10 90 4 47 9 101 11 120 9 95 15 390 8 391 -40 4 -217 3 -222 -1 -8 -6 -9 -8
-17 -90 -16 -158 -82 -394 -143 -515 -107 -213 -256 -337 -472 -394 -96 -25
-281 -24 -385 3 -88 23 -215 83 -286 136 -244 183 -401 441 -569 936 -48 141
-128 408 -145 481 -2 10 -12 47 -20 83 -62 249 -76 308 -115 480 -23 102 -44
196 -46 210 -3 14 -14 61 -24 105 -11 44 -22 98 -26 120 -3 22 -8 43 -10 46
-3 5 -132 576 -186 824 -10 50 -21 97 -23 105 -29 127 -95 422 -99 443 -2 15
-7 35 -10 45 -3 9 -7 28 -10 42 -4 20 -108 486 -121 540 -2 8 -13 56 -24 105
-11 50 -34 151 -51 225 -18 74 -33 142 -35 150 -2 8 -11 47 -20 85 -9 39 -19
81 -21 95 -3 14 -12 52 -21 85 -8 33 -17 69 -20 80 -7 33 -13 59 -17 80 -2 11
-14 61 -26 110 -12 50 -23 97 -25 105 -18 85 -196 776 -230 895 -8 28 -29 100
-46 160 -120 429 -273 795 -430 1030 -82 123 -226 275 -329 347 -122 86 -266
149 -389 169 -62 10 -168 19 -173 14z"/>
</g>
</svg>
