<?xml version="1.0" standalone="no"?>
<!DOCTYPE svg PUBLIC "-//W3C//DTD SVG 20010904//EN"
 "http://www.w3.org/TR/2001/REC-SVG-20010904/DTD/svg10.dtd">
<svg version="1.0" xmlns="http://www.w3.org/2000/svg"
 width="451.000000pt" height="451.000000pt" viewBox="0 0 451.000000 451.000000"
 preserveAspectRatio="xMidYMid meet">
<metadata>
Created by potrace 1.11, written by Peter Selinger 2001-2013
</metadata>
<g transform="translate(0.000000,451.000000) scale(0.100000,-0.100000)"
fill="#000000" stroke="none">
<path d="M2105 4105 c-42 -110 -111 -285 -152 -390 -78 -200 -141 -362 -218
-560 -26 -66 -129 -331 -230 -590 -101 -258 -287 -738 -414 -1065 -128 -327
-257 -646 -287 -709 -136 -285 -275 -425 -454 -460 -66 -13 -102 -19 -115 -20
-6 -1 -9 -24 -7 -56 l4 -55 604 0 604 0 0 55 c0 30 -3 56 -7 56 -5 1 -17 3
-28 4 -243 27 -352 101 -360 245 -4 68 39 240 85 335 5 11 52 130 104 265 164
427 506 1304 515 1325 5 11 78 198 162 415 84 217 156 399 159 403 6 7 53
-109 150 -363 9 -25 200 -520 423 -1100 223 -580 415 -1091 426 -1134 59 -225
-22 -354 -241 -382 -29 -4 -60 -8 -68 -10 -8 -1 -20 -3 -25 -3 -6 -1 -10 -26
-10 -56 l0 -55 771 0 772 0 4 46 c2 25 0 51 -4 57 -3 6 -28 12 -55 14 -197 15
-331 97 -453 277 -69 103 -116 206 -230 501 -50 132 -102 267 -115 300 -13 33
-92 238 -175 455 -83 217 -155 404 -160 415 -9 22 -27 68 -270 700 -88 231
-165 429 -170 440 -5 11 -84 216 -176 455 -91 239 -168 437 -169 438 -2 2 -28
5 -58 5 l-54 2 -78 -200z"/>
</g>
</svg>
