<?xml version="1.0" encoding="UTF-8"?>
<svg width="327px" height="306px" viewBox="0 0 327 306" version="1.1" xmlns="http://www.w3.org/2000/svg" xmlns:xlink="http://www.w3.org/1999/xlink" xmlns:sketch="http://www.bohemiancoding.com/sketch/ns">
    <!-- Generator: Sketch 3.4.2 (15855) - http://www.bohemiancoding.com/sketch -->
    <title>google-plus</title>
    <desc>Created with Sketch.</desc>
    <defs></defs>
    <g id="Page-1" stroke="none" stroke-width="1" fill="none" fill-rule="evenodd" sketch:type="MSPage">
        <g id="003-google-plus" sketch:type="MSLayerGroup" fill="#000000">
            <path d="M288.888,45.054 L288.888,19.854 L288.888,7 L276.034,7 L257.004,7 L244.15,7 L244.15,19.854 L244.15,45.054 L218.957,45.054 L206.103,45.054 C206.103,45.054 206.103003,89.7969971 206.103003,89.7970012 L218.963,89.797 L244.156,89.797 L244.156,114.997 L244.156,127.851 L257.01,127.851 L276.04,127.851 L288.894,127.851 L288.894,114.997 L288.894,89.797 L314.087,89.797 L326.941,89.797 L326.941,76.943 L326.941,57.913 L326.941,45.06 L314.081,45.06 L288.888,45.054 Z M186.511997,71.5461426 C185.689273,61.7739258 184.597,59.275 184.597,59.275 C183.234,53.844 181.345,48.709 178.884,44.024 L181.699,41.068 L200.125,21.717 L220.807,0 L190.819,0 L108.356,0 C59.795,0 18.773,35.566 18.773,77.668 C18.773,118.838 45.489,148.466 84.802,152.412 C84.706,153.53 84.661,154.649 84.661,155.754 C84.661,159.083 85.085,162.104 85.818,164.861 C34.185,168.685 0.103,206.545 0.103,242.034 C0.103,279.419 41.723,305.538 101.306,305.538 C164.578,305.538 202.387,267.395 202.387,230.524 C202.387,199.919 193.698,184.071 165.214,162.702 L163.459,161.391 C159.731,158.621 148.761,150.478 146.1,146.249 C146.248,143.145 147.482,141.03 157.694,133.055 C174.429,119.964 184.269,104.025 186.512,86.595 C186.512,86.595 187.33472,81.3183594 186.511997,71.5461426 Z M133.221,147.599 C133.221,155.491 149.854,167.259 157.502,172.979 C184.141,192.96 189.533,205.524 189.533,230.518 C189.533,261.688 155.934,292.678 101.305,292.678 C53.387,292.678 12.955,273.198 12.955,242.028 C12.955,210.369 46.503,177.393 94.415,177.393 C99.64,177.393 104.422,177.264 109.377,177.264 C102.815,170.876 97.513,165.374 97.513,155.741 C97.513,150.021 99.338,144.565 101.896,139.667 C99.287,139.853 96.639,139.995 93.895,139.995 C54.543,139.995 31.632,112.34 31.632,77.655 C31.632,43.708 66.504,12.84 108.362,12.84 L190.831,12.84 L172.4,32.198 L150.748,32.198 C166.018,40.951 174.155,58.972 174.155,78.838 C174.154,97.064 164.039,111.763 149.777,122.92 C135.863,133.788 133.221,138.344 133.221,147.599 Z M314.227,77.083 L276.18,77.083 L276.18,115.136 L257.15,115.136 L257.15,77.083 L219.103,77.083 L219.103,58.053 L257.15,58.053 L257.15,20 L276.18,20 L276.18,58.053 L314.227,58.053 L314.227,77.083 L314.227,77.083 Z M95.933,26.266 C95.612,26.26 95.297,26.253 94.982,26.253 C73.291,26.253 58.85,48.374 62.642,77.154 C66.485,106.338 87.604,126.731 109.834,127.393 C110.22,127.406 110.592,127.406 110.972,127.406 C132.495,127.406 144.79,108.768 141.017,80.072 C137.181,50.888 118.151,26.935 95.933,26.266 L95.933,26.266 Z M123.151,109.578 C120.208,112.933 116.223,114.559 110.966,114.559 L110.214,114.553 C93.221,114.045 78.247,97.246 75.387,75.484 C73.761,63.132 76.293,51.769 82.161,45.072 C85.631,41.119 89.944,39.114 94.989,39.108 L95.561,39.114 C110.568,39.564 125.247,58.69 128.274,81.75 C129.861,93.909 127.997,104.044 123.151,109.578 L123.151,109.578 Z M105.272,187.156 C104.983,187.15 104.694,187.15 104.404,187.15 C71.672,187.15 44.082,208.294 44.082,232.761 C44.082,257.954 68.003,278.919 101.12,278.919 C147.682,278.919 163.923,259.234 163.923,234.047 C163.923,231.007 163.531,228.031 162.869,225.159 C159.231,210.898 144.72,203.089 126.731,190.589 C120.195,188.473 112.997,187.227 105.272,187.156 L105.272,187.156 Z M150.414,228.333 C150.825,230.12 151.07,232.138 151.07,234.04 C151.07,241.958 151.07,266.058 101.121,266.058 C76.346,266.058 56.937,251.431 56.937,232.754 C56.937,215.614 79.566,199.996 104.406,199.996 L105.126,200.002 C110.634,200.053 115.987,200.825 121.071,202.277 C123.14,203.71 125.165,205.073 127.125,206.403 C140.78,215.64 148.601,221.212 150.414,228.333 L150.414,228.333 Z" id="Shape" sketch:type="MSShapeGroup"></path>
        </g>
    </g>
</svg>