<svg xmlns="http://www.w3.org/2000/svg" xmlns:xlink="http://www.w3.org/1999/xlink">
<symbol id="dribbble" viewBox="0 0 16 16"><path d="M8,15.684c-4.235,0-7.684-3.448-7.684-7.684S3.765,0.316,8,0.316c4.236,0,7.684,3.448,7.684,7.684S12.236,15.684,8,15.684z  M14.48,9.052c-0.225-0.071-2.032-0.609-4.088-0.28c0.857,2.358,1.207,4.279,1.275,4.679C13.139,12.454,14.188,10.877,14.48,9.052 L14.48,9.052L14.48,9.052z M10.564,14.051c-0.098-0.574-0.48-2.581-1.402-4.975L9.119,9.089c-3.701,1.291-5.028,3.857-5.147,4.098 C5.084,14.056,6.482,14.572,8,14.572C8.909,14.572,9.777,14.387,10.564,14.051L10.564,14.051z M3.124,12.398 c0.148-0.255,1.95-3.236,5.335-4.332c0.086-0.027,0.174-0.053,0.26-0.076C8.553,7.616,8.373,7.243,8.187,6.877 C4.908,7.855,1.729,7.814,1.441,7.809L1.438,8.007c0,1.687,0.639,3.226,1.687,4.39L3.124,12.398L3.124,12.398z M1.575,6.666 c0.294,0.004,2.998,0.016,6.067-0.8C6.556,3.935,5.383,2.309,5.211,2.07C3.374,2.937,2.002,4.629,1.575,6.666L1.575,6.666z  M6.463,1.63c0.182,0.244,1.375,1.866,2.448,3.842c2.334-0.873,3.323-2.202,3.44-2.37c-1.159-1.031-2.684-1.656-4.351-1.656 c-0.529,0-1.044,0.063-1.537,0.183L6.463,1.63L6.463,1.63z M13.08,3.86c-0.139,0.187-1.239,1.597-3.664,2.588 c0.153,0.313,0.297,0.63,0.436,0.95c0.047,0.112,0.096,0.226,0.141,0.338c2.183-0.274,4.353,0.165,4.57,0.211 c-0.015-1.549-0.568-2.971-1.482-4.088V3.86z"/></symbol>
<symbol id="facebook" viewBox="0 0 16 16"><path d="M14.834,0.316H1.165c-0.47,0-0.849,0.379-0.849,0.849v13.67c0,0.47,0.381,0.849,0.849,0.849h7.358V9.732H6.521V7.415h2.002 V5.702c0-1.983,1.213-3.063,2.984-3.063c0.848,0,1.576,0.063,1.789,0.092v2.074h-1.229c-0.961,0-1.148,0.461-1.148,1.133v1.479 h2.295L12.916,9.74H10.92v5.943h3.914c0.469,0,0.85-0.379,0.85-0.849V1.165C15.684,0.695,15.303,0.316,14.834,0.316"/></symbol>
<symbol id="flickr" viewBox="0 0 16 16"><path d="M0.547,8c0,1.91,1.549,3.456,3.456,3.456c1.911,0,3.459-1.546,3.459-3.456S5.914,4.544,4.003,4.544 C2.098,4.544,0.547,6.09,0.547,8z M8.537,8c0,1.91,1.549,3.456,3.458,3.456c1.901,0,3.458-1.546,3.458-3.456 s-1.551-3.456-3.457-3.456C10.086,4.544,8.537,6.09,8.537,8z"/></symbol>
<symbol id="github" viewBox="0 0 16 16"><path d="M8.001,0.507c-4.244,0-7.684,3.44-7.684,7.685c0,3.396,2.201,6.273,5.254,7.289c0.385,0.071,0.525-0.166,0.525-0.369 c0-0.184-0.007-0.666-0.012-1.307c-2.136,0.465-2.588-1.031-2.588-1.031c-0.35-0.888-0.854-1.123-0.854-1.123 c-0.697-0.478,0.053-0.467,0.053-0.467c0.771,0.053,1.177,0.791,1.177,0.791c0.687,1.174,1.799,0.836,2.237,0.639 c0.068-0.497,0.267-0.836,0.486-1.028c-1.707-0.192-3.5-0.853-3.5-3.795c0-0.838,0.299-1.524,0.791-2.062 C3.801,5.534,3.542,4.753,3.955,3.693c0,0,0.644-0.207,2.114,0.789c0.615-0.172,1.267-0.256,1.921-0.26 c0.653,0.004,1.305,0.088,1.921,0.26c1.459-0.993,2.104-0.789,2.104-0.789c0.412,1.06,0.152,1.84,0.075,2.035 c0.49,0.537,0.787,1.224,0.787,2.062c0,2.951-1.796,3.601-3.506,3.792c0.269,0.23,0.519,0.7,0.519,1.42 c0,1.027-0.01,1.854-0.01,2.104c0,0.203,0.135,0.442,0.528,0.365c3.073-1.008,5.274-3.889,5.274-7.279 C15.685,3.947,12.244,0.507,8.001,0.507"/></symbol>
<symbol id="googleplus" viewBox="0 0 16 16"><path d="M5.287,7.323v1.628h2.69c-0.106,0.698-0.812,2.044-2.688,2.044c-1.618,0-2.94-1.341-2.94-2.994 c0-1.653,1.319-2.995,2.938-2.995c0.921,0,1.539,0.392,1.891,0.732L8.465,4.5C7.637,3.724,6.568,3.259,5.289,3.259 c-2.624,0-4.744,2.123-4.744,4.743s2.121,4.74,4.743,4.74c2.737,0,4.554-1.919,4.554-4.634c0-0.31-0.033-0.549-0.076-0.786H5.287 L5.287,7.323z M15.451,7.323h-1.354V5.968h-1.354v1.354h-1.354v1.355h1.354v1.354h1.36V8.678h1.353"/></symbol>
<symbol id="instagram" viewBox="0 0 16 16"><path d="M8.002,0.546c-2.023,0-2.279,0.011-3.072,0.045C4.137,0.629,3.596,0.753,3.121,0.936C2.63,1.126,2.214,1.381,1.802,1.797 c-0.415,0.416-0.67,0.828-0.86,1.319c-0.183,0.476-0.311,1.018-0.345,1.81C0.557,5.722,0.547,5.976,0.547,8s0.012,2.279,0.047,3.073 c0.036,0.792,0.162,1.333,0.345,1.808c0.189,0.491,0.445,0.907,0.858,1.32c0.416,0.413,0.828,0.668,1.32,0.859 c0.475,0.183,1.016,0.312,1.809,0.344C5.721,15.443,5.976,15.453,8,15.453s2.279-0.013,3.073-0.048 c0.792-0.035,1.333-0.161,1.808-0.345c0.491-0.189,0.907-0.445,1.32-0.859c0.413-0.415,0.668-0.828,0.859-1.319 c0.184-0.475,0.31-1.017,0.344-1.808c0.038-0.793,0.047-1.049,0.047-3.073s-0.012-2.278-0.047-3.073 c-0.036-0.792-0.161-1.335-0.344-1.809c-0.19-0.491-0.446-0.906-0.859-1.319c-0.416-0.413-0.828-0.669-1.32-0.86 c-0.475-0.182-1.018-0.309-1.808-0.344C10.283,0.555,10.027,0.546,8.002,0.546z M8.002,1.888c1.991,0,2.226,0.01,3.011,0.045 c0.726,0.032,1.119,0.153,1.386,0.257c0.346,0.136,0.594,0.297,0.857,0.556c0.263,0.262,0.424,0.507,0.557,0.858 c0.101,0.264,0.222,0.658,0.256,1.386c0.036,0.787,0.044,1.021,0.044,3.011s-0.009,2.226-0.046,3.012 c-0.038,0.726-0.159,1.118-0.264,1.384c-0.14,0.348-0.298,0.596-0.557,0.858c-0.264,0.262-0.512,0.423-0.858,0.557 c-0.263,0.102-0.663,0.223-1.39,0.256c-0.791,0.036-1.023,0.044-3.017,0.044c-1.995,0-2.226-0.01-3.017-0.047 c-0.728-0.037-1.128-0.158-1.39-0.262c-0.353-0.142-0.594-0.299-0.858-0.558c-0.261-0.264-0.428-0.513-0.559-0.859 c-0.101-0.262-0.222-0.663-0.262-1.389C1.87,10.216,1.86,9.974,1.86,7.988c0-1.985,0.01-2.227,0.038-3.019 C1.935,4.243,2.056,3.842,2.16,3.581c0.131-0.352,0.3-0.594,0.559-0.856c0.263-0.263,0.504-0.428,0.856-0.559 c0.263-0.102,0.654-0.222,1.381-0.262C5.746,1.878,5.981,1.87,7.973,1.87L8.002,1.888z M8.002,4.173 C5.886,4.173,4.176,5.889,4.176,8c0,2.114,1.716,3.827,3.826,3.827c2.116,0,3.828-1.717,3.828-3.827 C11.83,5.885,10.116,4.173,8.002,4.173z M8.002,10.485C6.63,10.485,5.517,9.374,5.517,8c0-1.374,1.112-2.486,2.485-2.486 c1.373,0,2.485,1.113,2.485,2.486C10.487,9.374,9.374,10.485,8.002,10.485z M12.873,4.021c0,0.495-0.402,0.894-0.895,0.894 c-0.494,0-0.896-0.399-0.896-0.894c0-0.495,0.402-0.894,0.896-0.894C12.471,3.128,12.873,3.529,12.873,4.021z"/></symbol>
<symbol id="linkedin" viewBox="0 0 16 16"><path d="M13.246,13.252h-2.208V9.793c0-0.825-0.017-1.887-1.148-1.887c-1.152,0-1.327,0.9-1.327,1.828v3.521H6.355V6.141h2.122 v0.969h0.026c0.298-0.559,1.02-1.149,2.092-1.149c2.237,0,2.65,1.472,2.65,3.387v3.9V13.252L13.246,13.252z M3.862,5.165 c-0.71,0-1.283-0.576-1.283-1.283s0.572-1.281,1.283-1.281c0.707,0,1.281,0.576,1.281,1.281C5.145,4.589,4.569,5.165,3.862,5.165z  M4.969,13.252H2.755V6.14h2.214V13.252z M14.351,0.548H1.646c-0.607,0-1.1,0.481-1.1,1.074v12.757c0,0.592,0.493,1.073,1.1,1.073 h12.702c0.607,0,1.104-0.481,1.104-1.073V1.624c0-0.593-0.497-1.073-1.104-1.073L14.351,0.548L14.351,0.548z"/></symbol>
<symbol id="pinterest" viewBox="0 0 16 16"><path d="M8.007,0.763c-3.99,0-7.229,3.236-7.229,7.229c0,3.063,1.904,5.68,4.595,6.732c-0.063-0.573-0.12-1.449,0.024-2.076 c0.133-0.563,0.849-3.594,0.849-3.594S6.03,8.623,6.03,7.982c0-1.004,0.583-1.756,1.309-1.756c0.616,0,0.913,0.464,0.913,1.018 c0,0.621-0.392,1.549-0.597,2.407c-0.172,0.722,0.362,1.308,1.07,1.308c1.284,0,2.273-1.354,2.273-3.311 c0-1.727-1.243-2.938-3.02-2.938c-2.056,0-3.262,1.546-3.262,3.137c0,0.623,0.237,1.291,0.535,1.652 c0.06,0.073,0.068,0.137,0.052,0.207c-0.055,0.227-0.177,0.725-0.201,0.824c-0.031,0.137-0.104,0.164-0.242,0.1 c-0.9-0.415-1.468-1.736-1.468-2.803c0-2.277,1.657-4.373,4.777-4.373c2.508,0,4.458,1.789,4.458,4.176 c0,2.494-1.574,4.499-3.76,4.499c-0.731,0-1.419-0.38-1.663-0.831l-0.452,1.717c-0.162,0.631-0.605,1.418-0.903,1.898 c0.678,0.207,1.392,0.323,2.142,0.323c3.984,0,7.229-3.236,7.229-7.231c0-3.993-3.245-7.228-7.229-7.228L8.007,0.763z"/></symbol>
<symbol id="rss" viewBox="0 0 16 16"><path d="M12.471,15.453c0-6.542-5.382-11.924-11.923-11.924V0.547c8.177,0,14.905,6.729,14.905,14.906H12.471L12.471,15.453z M2.591,11.363c1.127,0,2.045,0.918,2.045,2.046c0,1.127-0.922,2.044-2.05,2.044c-1.126,0-2.04-0.916-2.04-2.044 C0.547,12.282,1.463,11.364,2.591,11.363L2.591,11.363z M10.427,15.453H7.53c0-3.833-3.151-6.985-6.98-6.985V5.574 C5.967,5.572,10.427,10.035,10.427,15.453z"/></symbol>
<symbol id="stackoverflow" viewBox="0 0 16 16"><path d="M12.339,14.127v-3.98h1.324v5.307H1.693v-5.307h1.323v3.98H12.339L12.339,14.127z M4.342,12.801h6.671v-1.326H4.342V12.801z  M4.503,9.787l6.51,1.361l0.28-1.285L4.785,8.502L4.503,9.787L4.503,9.787z M5.348,6.647l6.028,2.813l0.559-1.212L5.908,5.437 l-0.56,1.201V6.647L5.348,6.647z M7.033,3.676l5.103,4.258l0.843-1.006L7.877,2.672L7.038,3.676H7.033z M10.33,0.547L9.246,1.352 l3.978,5.343l1.083-0.803l-3.979-5.345H10.33z"/></symbol>
<symbol id="twitter" viewBox="0 0 16 16"><path d="M15.43,3.383c-0.55,0.243-1.138,0.407-1.756,0.48c0.628-0.38,1.115-0.978,1.344-1.69c-0.591,0.343-1.246,0.595-1.944,0.735 c-0.555-0.597-1.35-0.97-2.229-0.97c-1.69,0-3.06,1.37-3.06,3.055c0,0.243,0.03,0.476,0.08,0.7c-2.539-0.12-4.793-1.34-6.301-3.187 c-0.265,0.449-0.415,0.97-0.415,1.539c0,1.063,0.542,1.997,1.359,2.545c-0.5-0.016-0.972-0.152-1.384-0.381v0.038 c0,1.48,1.053,2.718,2.452,2.999C3.317,9.314,3.047,9.353,2.769,9.353c-0.194,0-0.382-0.02-0.568-0.056 c0.391,1.216,1.518,2.099,2.859,2.123c-1.042,0.821-2.364,1.31-3.79,1.31c-0.242,0-0.485-0.016-0.728-0.041 c1.359,0.866,2.963,1.373,4.695,1.373c5.629,0,8.702-4.661,8.702-8.692c0-0.132,0-0.261-0.01-0.393 c0.597-0.428,1.118-0.969,1.527-1.583L15.43,3.383z"/></symbol>
<symbol id="youtube" viewBox="0 0 16 16"><path d="M15.085,5.091c0,0-0.141-0.995-0.574-1.435c-0.55-0.578-1.165-0.579-1.448-0.613c-2.023-0.146-5.062-0.148-5.062-0.148 S4.242,2.926,3.086,3.039c-0.323,0.06-1.045,0.042-1.595,0.617C1.057,4.097,0.917,5.09,0.917,5.09S0.771,6.261,0.771,7.431v1.139 c0,1.171,0.145,2.341,0.145,2.341s0.142,0.993,0.575,1.435c0.55,0.575,1.273,0.558,1.595,0.618c1.157,0.11,4.916,0.143,4.916,0.143 s3.038-0.004,5.061-0.148c0.284-0.033,0.899-0.035,1.449-0.612c0.434-0.439,0.574-1.435,0.574-1.435s0.145-1.168,0.145-2.341V7.431 C15.23,6.261,15.085,5.091,15.085,5.091z M6.51,9.898H6.508V5.835l3.905,2.038L6.51,9.898z"/></symbol>
</svg>
